<svg width="16.926514" height="20.000000" viewBox="0 0 16.9265 20" fill="none" xmlns="http://www.w3.org/2000/svg" xmlns:xlink="http://www.w3.org/1999/xlink">
	<desc>
			Created with Pixso.
	</desc>
	<defs/>
	<path id="Vector" d="M8.46326 0C9.52411 0 10.5416 0.421417 11.2917 1.17157C12.0418 1.92172 12.4633 2.93915 12.4633 4L14.4983 4C15.0164 3.99994 15.5144 4.20099 15.8873 4.56082C16.2602 4.92062 16.4789 5.41113 16.4973 5.92899L16.9252 17.929C16.9348 18.1974 16.8902 18.4649 16.7941 18.7157C16.6979 18.9665 16.5524 19.1953 16.3658 19.3886C16.1794 19.5819 15.9559 19.7356 15.7087 19.8407C15.4616 19.9457 15.1958 19.9999 14.9272 20L1.99927 20C1.73071 19.9999 1.4649 19.9457 1.21777 19.8407C0.970581 19.7356 0.747131 19.5819 0.560669 19.3886C0.374207 19.1953 0.228577 18.9665 0.132446 18.7157C0.0363159 18.4649 -0.00830078 18.1974 0.00128174 17.929L0.42926 5.92899C0.447632 5.41113 0.666321 4.92062 1.03918 4.56082C1.41211 4.20099 1.9101 3.99994 2.42828 4L4.46326 4C4.46326 2.93915 4.8847 1.92172 5.63483 1.17157C6.38495 0.421417 7.4024 0 8.46326 0ZM4.46326 6L2.42828 6L1.99927 18L14.9272 18L14.4983 6L12.4633 6L12.4633 7C12.463 7.25488 12.3654 7.50003 12.1904 7.68536C12.0154 7.8707 11.7763 7.98224 11.5219 7.99716C11.2674 8.01212 11.0169 7.92932 10.8214 7.76575C10.626 7.60214 10.5004 7.37009 10.4703 7.117L10.4633 7L10.4633 6L6.46326 6L6.46326 7C6.46295 7.25488 6.36536 7.50003 6.19043 7.68536C6.01544 7.8707 5.77631 7.98224 5.52185 7.99716C5.2674 8.01212 5.01691 7.92932 4.82141 7.76575C4.62598 7.60214 4.50037 7.37009 4.47028 7.117L4.46326 7L4.46326 6ZM8.46326 2C7.95868 1.99985 7.47272 2.1904 7.10272 2.53351C6.73273 2.87659 6.5061 3.34683 6.46826 3.85001L6.46326 4L10.4633 4C10.4633 3.46957 10.2526 2.96085 9.8775 2.58578C9.50238 2.21072 8.99371 2 8.46326 2Z" fill="#5C5C5E" fill-opacity="1.000000" fill-rule="nonzero"/>
</svg>
